<svg xmlns="http://www.w3.org/2000/svg" viewBox="0 0 82.07 81.75"><defs><style>.cls-1{fill:#fff;}</style></defs><g id="Слой_2" data-name="Слой 2"><g id="Слой_1-2" data-name="Слой 1"><rect x="7.07" y="6.75" width="73" height="73"/><path d="M78.07,8.75v69h-69v-69h69m4-4h-77v77h77v-77Z"/><rect class="cls-1" x="2" y="2" width="73" height="73"/><path d="M73,4V73H4V4H73m4-4H0V77H77V0Z"/><rect class="cls-1" x="10.5" y="37.35" width="56" height="3" transform="translate(-16.2 38.6) rotate(-45)"/><polygon points="57.24 15.16 14.81 57.59 19.76 62.54 62.19 20.11 57.24 15.16 57.24 15.16"/><rect class="cls-1" x="37" y="10.15" width="3" height="56" transform="translate(-15.7 38.4) rotate(-45)"/><polygon points="19.76 14.46 14.81 19.41 57.24 61.84 62.19 56.88 19.76 14.46 19.76 14.46"/></g></g></svg>