<svg xmlns="http://www.w3.org/2000/svg" viewBox="0 0 82.07 81.75"><defs><style>.cls-1{fill:#fff;}</style></defs><g id="Слой_2" data-name="Слой 2"><g id="Слой_1-2" data-name="Слой 1"><rect x="7.07" y="6.75" width="73" height="73"/><path d="M78.07,8.75v69h-69v-69h69m4-4h-77v77h77v-77Z"/><rect class="cls-1" x="2" y="2" width="73" height="73"/><path d="M73,4V73H4V4H73m4-4H0V77H77V0Z"/><rect class="cls-1" x="17.38" y="37.75" width="41.69" height="3"/><polygon points="61.07 35.75 15.38 35.75 15.38 42.75 61.07 42.75 61.07 35.75 61.07 35.75"/><rect class="cls-1" x="17.25" y="49.75" width="41.69" height="3"/><polygon points="60.94 47.75 15.25 47.75 15.25 54.75 60.94 54.75 60.94 47.75 60.94 47.75"/><rect class="cls-1" x="17.25" y="25.75" width="41.69" height="3"/><polygon points="60.94 23.75 15.25 23.75 15.25 30.75 60.94 30.75 60.94 23.75 60.94 23.75"/></g></g></svg>